<mxfile host="app.diagrams.net" agent="Mozilla/5.0 (Windows NT 10.0; Win64; x64) AppleWebKit/537.36 (KHTML, like Gecko) Chrome/128.0.0.0 Safari/537.36" version="24.7.10">
  <diagram name="Side-1" id="3MFqu2Vgowrx1Lo3R7UB">
    <mxGraphModel dx="633" dy="355" grid="1" gridSize="10" guides="1" tooltips="1" connect="1" arrows="1" fold="1" page="1" pageScale="1" pageWidth="827" pageHeight="1169" math="0" shadow="0">
      <root>
        <mxCell id="0" />
        <mxCell id="1" parent="0" />
        <mxCell id="cnPKgD6vpYnsOlSG58e3-1" value="" style="rounded=1;whiteSpace=wrap;html=1;fillColor=#dae8fc;strokeColor=#6c8ebf;" vertex="1" parent="1">
          <mxGeometry x="80" y="200" width="260" height="100" as="geometry" />
        </mxCell>
        <mxCell id="cnPKgD6vpYnsOlSG58e3-2" value="1 Vpp 1 kHz&lt;div&gt;Sine&lt;/div&gt;" style="rounded=0;whiteSpace=wrap;html=1;align=left;" vertex="1" parent="1">
          <mxGeometry x="100" y="220" width="120" height="40" as="geometry" />
        </mxCell>
        <mxCell id="cnPKgD6vpYnsOlSG58e3-3" value="" style="ellipse;whiteSpace=wrap;html=1;aspect=fixed;fillColor=#f5f5f5;gradientColor=#b3b3b3;strokeColor=#666666;" vertex="1" parent="1">
          <mxGeometry x="300" y="270" width="20" height="20" as="geometry" />
        </mxCell>
        <mxCell id="cnPKgD6vpYnsOlSG58e3-4" value="" style="rounded=0;whiteSpace=wrap;html=1;fillColor=#f5f5f5;gradientColor=#b3b3b3;strokeColor=#666666;" vertex="1" parent="1">
          <mxGeometry x="240" y="220" width="10" height="10" as="geometry" />
        </mxCell>
        <mxCell id="cnPKgD6vpYnsOlSG58e3-5" value="" style="rounded=0;whiteSpace=wrap;html=1;fillColor=#f5f5f5;gradientColor=#b3b3b3;strokeColor=#666666;" vertex="1" parent="1">
          <mxGeometry x="260" y="220" width="10" height="10" as="geometry" />
        </mxCell>
        <mxCell id="cnPKgD6vpYnsOlSG58e3-6" value="" style="rounded=0;whiteSpace=wrap;html=1;fillColor=#f5f5f5;gradientColor=#b3b3b3;strokeColor=#666666;" vertex="1" parent="1">
          <mxGeometry x="280" y="220" width="10" height="10" as="geometry" />
        </mxCell>
        <mxCell id="cnPKgD6vpYnsOlSG58e3-7" value="" style="rounded=0;whiteSpace=wrap;html=1;fillColor=#f5f5f5;gradientColor=#b3b3b3;strokeColor=#666666;" vertex="1" parent="1">
          <mxGeometry x="240" y="235" width="10" height="10" as="geometry" />
        </mxCell>
        <mxCell id="cnPKgD6vpYnsOlSG58e3-8" value="" style="rounded=0;whiteSpace=wrap;html=1;fillColor=#f5f5f5;gradientColor=#b3b3b3;strokeColor=#666666;" vertex="1" parent="1">
          <mxGeometry x="260" y="235" width="10" height="10" as="geometry" />
        </mxCell>
        <mxCell id="cnPKgD6vpYnsOlSG58e3-9" value="" style="rounded=0;whiteSpace=wrap;html=1;fillColor=#f5f5f5;gradientColor=#b3b3b3;strokeColor=#666666;" vertex="1" parent="1">
          <mxGeometry x="280" y="235" width="10" height="10" as="geometry" />
        </mxCell>
        <mxCell id="cnPKgD6vpYnsOlSG58e3-10" value="" style="rounded=0;whiteSpace=wrap;html=1;fillColor=#f5f5f5;gradientColor=#b3b3b3;strokeColor=#666666;" vertex="1" parent="1">
          <mxGeometry x="240" y="250" width="10" height="10" as="geometry" />
        </mxCell>
        <mxCell id="cnPKgD6vpYnsOlSG58e3-11" value="" style="rounded=0;whiteSpace=wrap;html=1;fillColor=#f5f5f5;gradientColor=#b3b3b3;strokeColor=#666666;" vertex="1" parent="1">
          <mxGeometry x="260" y="250" width="10" height="10" as="geometry" />
        </mxCell>
        <mxCell id="cnPKgD6vpYnsOlSG58e3-12" value="" style="rounded=0;whiteSpace=wrap;html=1;fillColor=#f5f5f5;gradientColor=#b3b3b3;strokeColor=#666666;" vertex="1" parent="1">
          <mxGeometry x="280" y="250" width="10" height="10" as="geometry" />
        </mxCell>
        <mxCell id="cnPKgD6vpYnsOlSG58e3-13" value="" style="rounded=0;whiteSpace=wrap;html=1;fillColor=#f5f5f5;gradientColor=#b3b3b3;strokeColor=#666666;" vertex="1" parent="1">
          <mxGeometry x="100" y="275" width="10" height="10" as="geometry" />
        </mxCell>
        <mxCell id="cnPKgD6vpYnsOlSG58e3-14" value="" style="rounded=0;whiteSpace=wrap;html=1;fillColor=#f5f5f5;gradientColor=#b3b3b3;strokeColor=#666666;" vertex="1" parent="1">
          <mxGeometry x="120" y="275" width="10" height="10" as="geometry" />
        </mxCell>
        <mxCell id="cnPKgD6vpYnsOlSG58e3-15" style="edgeStyle=orthogonalEdgeStyle;rounded=0;orthogonalLoop=1;jettySize=auto;html=1;exitX=0.5;exitY=1;exitDx=0;exitDy=0;" edge="1" parent="1" source="cnPKgD6vpYnsOlSG58e3-1" target="cnPKgD6vpYnsOlSG58e3-1">
          <mxGeometry relative="1" as="geometry" />
        </mxCell>
        <mxCell id="cnPKgD6vpYnsOlSG58e3-16" value="" style="endArrow=none;html=1;rounded=0;exitX=0.5;exitY=0;exitDx=0;exitDy=0;exitPerimeter=0;" edge="1" parent="1" source="cnPKgD6vpYnsOlSG58e3-18">
          <mxGeometry width="50" height="50" relative="1" as="geometry">
            <mxPoint x="310.25" y="330" as="sourcePoint" />
            <mxPoint x="309.75" y="290" as="targetPoint" />
          </mxGeometry>
        </mxCell>
        <mxCell id="cnPKgD6vpYnsOlSG58e3-17" value="" style="ellipse;whiteSpace=wrap;html=1;aspect=fixed;" vertex="1" parent="1">
          <mxGeometry x="307.5" y="277.5" width="5" height="5" as="geometry" />
        </mxCell>
        <mxCell id="cnPKgD6vpYnsOlSG58e3-18" value="" style="pointerEvents=1;verticalLabelPosition=bottom;shadow=0;dashed=0;align=center;html=1;verticalAlign=top;shape=mxgraph.electrical.signal_sources.signal_ground;" vertex="1" parent="1">
          <mxGeometry x="287.5" y="420" width="45" height="30" as="geometry" />
        </mxCell>
        <mxCell id="cnPKgD6vpYnsOlSG58e3-19" value="" style="endArrow=none;html=1;rounded=0;" edge="1" parent="1">
          <mxGeometry width="50" height="50" relative="1" as="geometry">
            <mxPoint x="312.5" y="280" as="sourcePoint" />
            <mxPoint x="440" y="280" as="targetPoint" />
          </mxGeometry>
        </mxCell>
        <mxCell id="cnPKgD6vpYnsOlSG58e3-20" value="" style="pointerEvents=1;verticalLabelPosition=bottom;shadow=0;dashed=0;align=center;html=1;verticalAlign=top;shape=mxgraph.electrical.resistors.resistor_2;" vertex="1" parent="1">
          <mxGeometry x="440" y="270" width="100" height="20" as="geometry" />
        </mxCell>
        <mxCell id="cnPKgD6vpYnsOlSG58e3-23" value="" style="pointerEvents=1;verticalLabelPosition=bottom;shadow=0;dashed=0;align=center;html=1;verticalAlign=top;shape=mxgraph.electrical.resistors.resistor_1;direction=south;" vertex="1" parent="1">
          <mxGeometry x="590" y="279.5" width="20" height="100" as="geometry" />
        </mxCell>
        <mxCell id="cnPKgD6vpYnsOlSG58e3-24" value="" style="endArrow=none;html=1;rounded=0;entryX=0;entryY=0.5;entryDx=0;entryDy=0;entryPerimeter=0;" edge="1" parent="1" target="cnPKgD6vpYnsOlSG58e3-23">
          <mxGeometry width="50" height="50" relative="1" as="geometry">
            <mxPoint x="540" y="280" as="sourcePoint" />
            <mxPoint x="590" y="230" as="targetPoint" />
          </mxGeometry>
        </mxCell>
        <mxCell id="cnPKgD6vpYnsOlSG58e3-25" value="" style="endArrow=none;html=1;rounded=0;entryX=1;entryY=0.5;entryDx=0;entryDy=0;entryPerimeter=0;" edge="1" parent="1" target="cnPKgD6vpYnsOlSG58e3-23">
          <mxGeometry width="50" height="50" relative="1" as="geometry">
            <mxPoint x="310" y="380" as="sourcePoint" />
            <mxPoint x="490" y="330" as="targetPoint" />
          </mxGeometry>
        </mxCell>
        <mxCell id="cnPKgD6vpYnsOlSG58e3-26" value="&lt;font style=&quot;font-size: 16px;&quot;&gt;DUT&lt;br&gt;(Unknown Z)&lt;/font&gt;" style="text;html=1;align=center;verticalAlign=middle;whiteSpace=wrap;rounded=0;" vertex="1" parent="1">
          <mxGeometry x="620" y="314.5" width="130" height="30" as="geometry" />
        </mxCell>
        <mxCell id="cnPKgD6vpYnsOlSG58e3-27" value="&lt;font style=&quot;font-size: 16px;&quot;&gt;R&lt;sub&gt;Ref&lt;br style=&quot;font-size: 16px;&quot;&gt;(Known Resistor)&lt;/sub&gt;&lt;/font&gt;" style="text;html=1;align=center;verticalAlign=middle;whiteSpace=wrap;rounded=0;" vertex="1" parent="1">
          <mxGeometry x="440" y="225" width="135" height="30" as="geometry" />
        </mxCell>
        <mxCell id="cnPKgD6vpYnsOlSG58e3-29" value="" style="rounded=1;whiteSpace=wrap;html=1;fillColor=#dae8fc;strokeColor=#6c8ebf;" vertex="1" parent="1">
          <mxGeometry x="780" y="120" width="290" height="170" as="geometry" />
        </mxCell>
        <mxCell id="cnPKgD6vpYnsOlSG58e3-31" value="" style="ellipse;whiteSpace=wrap;html=1;aspect=fixed;fillColor=#f5f5f5;gradientColor=#b3b3b3;strokeColor=#666666;" vertex="1" parent="1">
          <mxGeometry x="1020" y="150" width="20" height="20" as="geometry" />
        </mxCell>
        <mxCell id="cnPKgD6vpYnsOlSG58e3-32" value="" style="ellipse;whiteSpace=wrap;html=1;aspect=fixed;fillColor=#f5f5f5;gradientColor=#b3b3b3;strokeColor=#666666;" vertex="1" parent="1">
          <mxGeometry x="1020" y="190" width="20" height="20" as="geometry" />
        </mxCell>
        <mxCell id="cnPKgD6vpYnsOlSG58e3-33" value="" style="rounded=0;whiteSpace=wrap;html=1;fillColor=#f5f5f5;gradientColor=#b3b3b3;strokeColor=#666666;" vertex="1" parent="1">
          <mxGeometry x="1020" y="220" width="10" height="10" as="geometry" />
        </mxCell>
        <mxCell id="cnPKgD6vpYnsOlSG58e3-30" value="" style="rounded=0;whiteSpace=wrap;html=1;" vertex="1" parent="1">
          <mxGeometry x="800" y="140" width="210" height="100" as="geometry" />
        </mxCell>
        <mxCell id="cnPKgD6vpYnsOlSG58e3-34" value="" style="rounded=0;whiteSpace=wrap;html=1;fillColor=#f5f5f5;gradientColor=#b3b3b3;strokeColor=#666666;" vertex="1" parent="1">
          <mxGeometry x="1040" y="220" width="10" height="10" as="geometry" />
        </mxCell>
        <mxCell id="cnPKgD6vpYnsOlSG58e3-36" value="" style="curved=1;endArrow=none;html=1;rounded=0;endFill=0;fillColor=#fad7ac;strokeColor=#FFEA00;" edge="1" parent="1">
          <mxGeometry width="50" height="50" relative="1" as="geometry">
            <mxPoint x="800" y="180" as="sourcePoint" />
            <mxPoint x="870" y="180" as="targetPoint" />
            <Array as="points">
              <mxPoint x="820" y="220" />
              <mxPoint x="850" y="140" />
            </Array>
          </mxGeometry>
        </mxCell>
        <mxCell id="cnPKgD6vpYnsOlSG58e3-39" value="" style="curved=1;endArrow=none;html=1;rounded=0;endFill=0;fillColor=#fad7ac;strokeColor=#FFEA00;" edge="1" parent="1">
          <mxGeometry width="50" height="50" relative="1" as="geometry">
            <mxPoint x="940" y="180" as="sourcePoint" />
            <mxPoint x="1010" y="180" as="targetPoint" />
            <Array as="points">
              <mxPoint x="960" y="220" />
              <mxPoint x="990" y="140" />
            </Array>
          </mxGeometry>
        </mxCell>
        <mxCell id="cnPKgD6vpYnsOlSG58e3-38" value="" style="curved=1;endArrow=none;html=1;rounded=0;endFill=0;fillColor=#fad7ac;strokeColor=#FFEA00;" edge="1" parent="1">
          <mxGeometry width="50" height="50" relative="1" as="geometry">
            <mxPoint x="870" y="180" as="sourcePoint" />
            <mxPoint x="940" y="180" as="targetPoint" />
            <Array as="points">
              <mxPoint x="890" y="220" />
              <mxPoint x="920" y="140" />
            </Array>
          </mxGeometry>
        </mxCell>
        <mxCell id="cnPKgD6vpYnsOlSG58e3-54" value="" style="ellipse;whiteSpace=wrap;html=1;aspect=fixed;fillColor=#f5f5f5;gradientColor=#b3b3b3;strokeColor=#666666;" vertex="1" parent="1">
          <mxGeometry x="820" y="260" width="20" height="20" as="geometry" />
        </mxCell>
        <mxCell id="cnPKgD6vpYnsOlSG58e3-55" value="" style="ellipse;whiteSpace=wrap;html=1;aspect=fixed;fillColor=#f5f5f5;gradientColor=#b3b3b3;strokeColor=#666666;" vertex="1" parent="1">
          <mxGeometry x="860" y="260" width="20" height="20" as="geometry" />
        </mxCell>
        <mxCell id="cnPKgD6vpYnsOlSG58e3-56" value="" style="rounded=0;whiteSpace=wrap;html=1;fillColor=#f5f5f5;gradientColor=#b3b3b3;strokeColor=#666666;" vertex="1" parent="1">
          <mxGeometry x="1020" y="235" width="10" height="10" as="geometry" />
        </mxCell>
        <mxCell id="cnPKgD6vpYnsOlSG58e3-57" value="" style="rounded=0;whiteSpace=wrap;html=1;fillColor=#f5f5f5;gradientColor=#b3b3b3;strokeColor=#666666;" vertex="1" parent="1">
          <mxGeometry x="1040" y="235" width="10" height="10" as="geometry" />
        </mxCell>
        <mxCell id="cnPKgD6vpYnsOlSG58e3-58" value="" style="rounded=0;whiteSpace=wrap;html=1;fillColor=#f5f5f5;gradientColor=#b3b3b3;strokeColor=#666666;" vertex="1" parent="1">
          <mxGeometry x="1020" y="250" width="10" height="10" as="geometry" />
        </mxCell>
        <mxCell id="cnPKgD6vpYnsOlSG58e3-59" value="" style="rounded=0;whiteSpace=wrap;html=1;fillColor=#f5f5f5;gradientColor=#b3b3b3;strokeColor=#666666;" vertex="1" parent="1">
          <mxGeometry x="1040" y="250" width="10" height="10" as="geometry" />
        </mxCell>
        <mxCell id="cnPKgD6vpYnsOlSG58e3-60" value="" style="ellipse;whiteSpace=wrap;html=1;aspect=fixed;" vertex="1" parent="1">
          <mxGeometry x="900" y="262.5" width="20" height="20" as="geometry" />
        </mxCell>
        <mxCell id="cnPKgD6vpYnsOlSG58e3-61" value="" style="ellipse;whiteSpace=wrap;html=1;aspect=fixed;" vertex="1" parent="1">
          <mxGeometry x="940" y="262.5" width="20" height="20" as="geometry" />
        </mxCell>
        <mxCell id="cnPKgD6vpYnsOlSG58e3-62" value="" style="curved=1;endArrow=classic;html=1;rounded=0;strokeWidth=5;" edge="1" parent="1">
          <mxGeometry width="50" height="50" relative="1" as="geometry">
            <mxPoint x="829.2560880430638" y="269.7514049330147" as="sourcePoint" />
            <mxPoint x="409" y="282" as="targetPoint" />
            <Array as="points">
              <mxPoint x="709" y="242" />
              <mxPoint x="569" y="152" />
              <mxPoint x="479" y="172" />
            </Array>
          </mxGeometry>
        </mxCell>
        <mxCell id="cnPKgD6vpYnsOlSG58e3-63" value="" style="curved=1;endArrow=classic;html=1;rounded=0;strokeWidth=5;" edge="1" parent="1">
          <mxGeometry width="50" height="50" relative="1" as="geometry">
            <mxPoint x="871.4529980377479" y="270.6794970566218" as="sourcePoint" />
            <mxPoint x="590" y="280" as="targetPoint" />
            <Array as="points">
              <mxPoint x="830" y="320" />
              <mxPoint x="760" y="310" />
              <mxPoint x="640" y="210" />
            </Array>
          </mxGeometry>
        </mxCell>
        <mxCell id="cnPKgD6vpYnsOlSG58e3-64" value="&lt;span style=&quot;font-size: 16px;&quot;&gt;Signal Generator&lt;/span&gt;" style="text;html=1;align=center;verticalAlign=middle;whiteSpace=wrap;rounded=0;" vertex="1" parent="1">
          <mxGeometry x="92.5" y="160" width="135" height="30" as="geometry" />
        </mxCell>
        <mxCell id="cnPKgD6vpYnsOlSG58e3-65" value="&lt;span style=&quot;font-size: 16px;&quot;&gt;Oscilloscope&lt;/span&gt;" style="text;html=1;align=center;verticalAlign=middle;whiteSpace=wrap;rounded=0;" vertex="1" parent="1">
          <mxGeometry x="790" y="80" width="135" height="30" as="geometry" />
        </mxCell>
        <mxCell id="cnPKgD6vpYnsOlSG58e3-66" value="" style="pointerEvents=1;verticalLabelPosition=bottom;shadow=0;dashed=0;align=center;html=1;verticalAlign=top;shape=mxgraph.electrical.signal_sources.signal_ground;" vertex="1" parent="1">
          <mxGeometry x="847.5" y="340" width="45" height="30" as="geometry" />
        </mxCell>
        <mxCell id="cnPKgD6vpYnsOlSG58e3-67" value="" style="endArrow=none;html=1;rounded=0;entryX=0.5;entryY=1;entryDx=0;entryDy=0;exitX=0.5;exitY=0;exitDx=0;exitDy=0;exitPerimeter=0;" edge="1" parent="1" source="cnPKgD6vpYnsOlSG58e3-66" target="cnPKgD6vpYnsOlSG58e3-55">
          <mxGeometry width="50" height="50" relative="1" as="geometry">
            <mxPoint x="850" y="350" as="sourcePoint" />
            <mxPoint x="900" y="300" as="targetPoint" />
          </mxGeometry>
        </mxCell>
        <mxCell id="cnPKgD6vpYnsOlSG58e3-68" value="" style="endArrow=none;html=1;rounded=0;entryX=0.5;entryY=1;entryDx=0;entryDy=0;" edge="1" parent="1">
          <mxGeometry width="50" height="50" relative="1" as="geometry">
            <mxPoint x="830" y="340" as="sourcePoint" />
            <mxPoint x="829.93" y="280" as="targetPoint" />
          </mxGeometry>
        </mxCell>
        <mxCell id="cnPKgD6vpYnsOlSG58e3-69" value="" style="endArrow=none;html=1;rounded=0;" edge="1" parent="1">
          <mxGeometry width="50" height="50" relative="1" as="geometry">
            <mxPoint x="870" y="340" as="sourcePoint" />
            <mxPoint x="830" y="340" as="targetPoint" />
          </mxGeometry>
        </mxCell>
        <mxCell id="cnPKgD6vpYnsOlSG58e3-74" value="" style="curved=1;endArrow=none;html=1;rounded=0;endFill=0;fillColor=#f8cecc;strokeColor=#00FF04;gradientColor=#ea6b66;" edge="1" parent="1">
          <mxGeometry width="50" height="50" relative="1" as="geometry">
            <mxPoint x="800" y="165" as="sourcePoint" />
            <mxPoint x="871" y="166" as="targetPoint" />
            <Array as="points">
              <mxPoint x="805" y="169" />
              <mxPoint x="815" y="184" />
              <mxPoint x="826" y="195" />
              <mxPoint x="835" y="196" />
              <mxPoint x="843" y="189" />
              <mxPoint x="852" y="173" />
              <mxPoint x="863" y="162" />
            </Array>
          </mxGeometry>
        </mxCell>
        <mxCell id="cnPKgD6vpYnsOlSG58e3-75" value="" style="curved=1;endArrow=none;html=1;rounded=0;endFill=0;fillColor=#f8cecc;strokeColor=#00FF04;gradientColor=#ea6b66;" edge="1" parent="1">
          <mxGeometry width="50" height="50" relative="1" as="geometry">
            <mxPoint x="871" y="166" as="sourcePoint" />
            <mxPoint x="942" y="167" as="targetPoint" />
            <Array as="points">
              <mxPoint x="876" y="170" />
              <mxPoint x="886" y="185" />
              <mxPoint x="897" y="196" />
              <mxPoint x="906" y="197" />
              <mxPoint x="914" y="190" />
              <mxPoint x="923" y="174" />
              <mxPoint x="934" y="163" />
            </Array>
          </mxGeometry>
        </mxCell>
        <mxCell id="cnPKgD6vpYnsOlSG58e3-76" value="" style="curved=1;endArrow=none;html=1;rounded=0;endFill=0;fillColor=#f8cecc;strokeColor=#00FF04;gradientColor=#ea6b66;entryX=0.999;entryY=0.271;entryDx=0;entryDy=0;entryPerimeter=0;" edge="1" parent="1" target="cnPKgD6vpYnsOlSG58e3-30">
          <mxGeometry width="50" height="50" relative="1" as="geometry">
            <mxPoint x="942" y="167" as="sourcePoint" />
            <mxPoint x="1013" y="168" as="targetPoint" />
            <Array as="points">
              <mxPoint x="947" y="171" />
              <mxPoint x="957" y="186" />
              <mxPoint x="968" y="197" />
              <mxPoint x="977" y="198" />
              <mxPoint x="985" y="191" />
              <mxPoint x="994" y="175" />
              <mxPoint x="1005" y="164" />
            </Array>
          </mxGeometry>
        </mxCell>
        <mxCell id="cnPKgD6vpYnsOlSG58e3-52" value="" style="rounded=0;whiteSpace=wrap;html=1;fillColor=none;" vertex="1" parent="1">
          <mxGeometry x="800" y="140" width="210" height="100" as="geometry" />
        </mxCell>
      </root>
    </mxGraphModel>
  </diagram>
</mxfile>
